<svg viewBox="0 0 188 105" fill="none" xmlns="http://www.w3.org/2000/svg">
<g clip-path="url(#clip0)">
<path d="M39.5157 39C38.8157 39 38.3397 38.664 38.0877 37.992L28.3437 10.902L28.2597 10.44C28.2597 10.216 28.3437 10.02 28.5117 9.852C28.6797 9.684 28.8757 9.6 29.0997 9.6H29.9817C30.2337 9.6 30.4297 9.67 30.5697 9.81C30.7377 9.95 30.8497 10.09 30.9057 10.23L40.1037 35.934L49.3017 10.23C49.3577 10.09 49.4557 9.95 49.5957 9.81C49.7637 9.67 49.9737 9.6 50.2257 9.6H51.1077C51.3317 9.6 51.5277 9.684 51.6957 9.852C51.8637 10.02 51.9477 10.216 51.9477 10.44L51.8637 10.902L42.1197 37.992C41.8677 38.664 41.3917 39 40.6917 39H39.5157ZM76.4209 39.42C72.9209 39.42 70.2329 38.454 68.3569 36.522C66.5089 34.562 65.5849 31.594 65.5849 27.618V10.566C65.5849 10.286 65.6689 10.062 65.8369 9.894C66.0049 9.698 66.2289 9.6 66.5089 9.6H67.2649C67.5729 9.6 67.8109 9.684 67.9789 9.852C68.1469 10.02 68.2309 10.258 68.2309 10.566V27.744C68.2309 30.824 68.9449 33.12 70.3729 34.632C71.8009 36.144 73.8169 36.9 76.4209 36.9C78.9969 36.9 80.9989 36.144 82.4269 34.632C83.8549 33.12 84.5689 30.824 84.5689 27.744V10.566C84.5689 10.258 84.6529 10.02 84.8209 9.852C85.0169 9.684 85.2549 9.6 85.5349 9.6H86.2909C86.5709 9.6 86.7949 9.698 86.9629 9.894C87.1309 10.062 87.2149 10.286 87.2149 10.566V27.618C87.2149 31.622 86.2909 34.59 84.4429 36.522C82.5949 38.454 79.9209 39.42 76.4209 39.42ZM104.2 39C103.92 39 103.696 38.916 103.528 38.748C103.36 38.58 103.276 38.356 103.276 38.076V10.566C103.276 10.286 103.36 10.062 103.528 9.894C103.696 9.698 103.92 9.6 104.2 9.6H105.082C105.446 9.6 105.74 9.768 105.964 10.104L121.462 33.792V10.566C121.462 10.286 121.546 10.062 121.714 9.894C121.882 9.698 122.106 9.6 122.386 9.6H123.142C123.45 9.6 123.688 9.684 123.856 9.852C124.024 10.02 124.108 10.258 124.108 10.566V38.034C124.108 38.314 124.024 38.552 123.856 38.748C123.688 38.916 123.464 39 123.184 39H122.26C121.896 39 121.602 38.832 121.378 38.496L105.922 14.892V38.076C105.922 38.356 105.824 38.58 105.628 38.748C105.46 38.916 105.236 39 104.956 39H104.2ZM141.311 39C141.031 39 140.807 38.916 140.639 38.748C140.471 38.58 140.387 38.356 140.387 38.076V10.566C140.387 10.286 140.471 10.062 140.639 9.894C140.807 9.698 141.031 9.6 141.311 9.6H157.691C157.999 9.6 158.237 9.684 158.405 9.852C158.573 10.02 158.657 10.258 158.657 10.566V11.196C158.657 11.476 158.559 11.7 158.363 11.868C158.195 12.036 157.971 12.12 157.691 12.12H143.033V22.83H156.767C157.075 22.83 157.313 22.914 157.481 23.082C157.649 23.25 157.733 23.488 157.733 23.796V24.426C157.733 24.706 157.635 24.93 157.439 25.098C157.271 25.266 157.047 25.35 156.767 25.35H143.033V36.48H158.027C158.335 36.48 158.573 36.564 158.741 36.732C158.909 36.9 158.993 37.138 158.993 37.446V38.076C158.993 38.356 158.895 38.58 158.699 38.748C158.531 38.916 158.307 39 158.027 39H141.311Z" fill="#34495E"/>
<path d="M44.2066 93C44.1399 93 44.0832 92.98 44.0366 92.94C43.9966 92.8933 43.9766 92.8367 43.9766 92.77V86.89H42.0566C41.9899 86.89 41.9332 86.87 41.8866 86.83C41.8466 86.7833 41.8266 86.7267 41.8266 86.66V86.24C41.8266 86.1733 41.8466 86.1167 41.8866 86.07C41.9332 86.0233 41.9899 86 42.0566 86H46.8766C46.9499 86 47.0066 86.0233 47.0466 86.07C47.0932 86.11 47.1166 86.1667 47.1166 86.24V86.66C47.1166 86.7267 47.0932 86.7833 47.0466 86.83C46.9999 86.87 46.9432 86.89 46.8766 86.89H44.9666V92.77C44.9666 92.8367 44.9432 92.8933 44.8966 92.94C44.8499 92.98 44.7932 93 44.7266 93H44.2066ZM48.0676 93C48.0009 93 47.9442 92.98 47.8976 92.94C47.8576 92.8933 47.8376 92.8367 47.8376 92.77V86.24C47.8376 86.1667 47.8576 86.11 47.8976 86.07C47.9442 86.0233 48.0009 86 48.0676 86H48.5776C48.6509 86 48.7076 86.0233 48.7476 86.07C48.7942 86.11 48.8176 86.1667 48.8176 86.24V89H52.2576V86.24C52.2576 86.1667 52.2776 86.11 52.3176 86.07C52.3642 86.0233 52.4209 86 52.4876 86H52.9976C53.0709 86 53.1276 86.0233 53.1676 86.07C53.2142 86.11 53.2376 86.1667 53.2376 86.24V92.77C53.2376 92.8367 53.2142 92.8933 53.1676 92.94C53.1209 92.98 53.0642 93 52.9976 93H52.4876C52.4209 93 52.3642 92.98 52.3176 92.94C52.2776 92.8933 52.2576 92.8367 52.2576 92.77V89.9H48.8176V92.77C48.8176 92.8367 48.7942 92.8933 48.7476 92.94C48.7009 92.98 48.6442 93 48.5776 93H48.0676ZM54.8062 93C54.7396 93 54.6829 92.98 54.6362 92.94C54.5962 92.8933 54.5762 92.8367 54.5762 92.77V86.24C54.5762 86.1667 54.5962 86.11 54.6362 86.07C54.6829 86.0233 54.7396 86 54.8062 86H58.9362C59.0029 86 59.0562 86.0233 59.0962 86.07C59.1429 86.11 59.1662 86.1667 59.1662 86.24V86.62C59.1662 86.6867 59.1462 86.7433 59.1062 86.79C59.0662 86.83 59.0096 86.85 58.9362 86.85H55.5362V89.04H58.7162C58.7829 89.04 58.8362 89.0633 58.8762 89.11C58.9229 89.15 58.9462 89.2067 58.9462 89.28V89.65C58.9462 89.7167 58.9229 89.7733 58.8762 89.82C58.8362 89.86 58.7829 89.88 58.7162 89.88H55.5362V92.15H59.0162C59.0896 92.15 59.1462 92.17 59.1862 92.21C59.2262 92.25 59.2462 92.3067 59.2462 92.38V92.77C59.2462 92.8367 59.2229 92.8933 59.1762 92.94C59.1362 92.98 59.0829 93 59.0162 93H54.8062ZM64.5419 93.1C63.9885 93.1 63.5085 93.0133 63.1019 92.84C62.7019 92.6667 62.3952 92.44 62.1819 92.16C61.9685 91.8733 61.8552 91.5667 61.8419 91.24C61.8419 91.1867 61.8619 91.14 61.9019 91.1C61.9485 91.0533 62.0019 91.03 62.0619 91.03H62.5719C62.6985 91.03 62.7852 91.0967 62.8319 91.23C62.8919 91.51 63.0619 91.75 63.3419 91.95C63.6285 92.15 64.0285 92.25 64.5419 92.25C65.0952 92.25 65.5119 92.1533 65.7919 91.96C66.0719 91.76 66.2119 91.4833 66.2119 91.13C66.2119 90.9033 66.1419 90.72 66.0019 90.58C65.8685 90.44 65.6685 90.3167 65.4019 90.21C65.1352 90.1033 64.7352 89.97 64.2019 89.81C63.6819 89.6633 63.2685 89.5067 62.9619 89.34C62.6552 89.1733 62.4252 88.9667 62.2719 88.72C62.1185 88.4733 62.0419 88.1633 62.0419 87.79C62.0419 87.43 62.1385 87.1067 62.3319 86.82C62.5319 86.5333 62.8152 86.31 63.1819 86.15C63.5485 85.9833 63.9852 85.9 64.4919 85.9C65.0119 85.9 65.4585 85.9933 65.8319 86.18C66.2052 86.36 66.4885 86.59 66.6819 86.87C66.8752 87.15 66.9785 87.43 66.9919 87.71C66.9919 87.7633 66.9719 87.81 66.9319 87.85C66.8985 87.89 66.8485 87.91 66.7819 87.91H66.2519C66.1119 87.91 66.0252 87.8467 65.9919 87.72C65.9519 87.44 65.7952 87.21 65.5219 87.03C65.2485 86.8433 64.9052 86.75 64.4919 86.75C64.0385 86.75 63.6819 86.8367 63.4219 87.01C63.1619 87.1833 63.0319 87.44 63.0319 87.78C63.0319 88.0067 63.0919 88.1933 63.2119 88.34C63.3385 88.4867 63.5285 88.6167 63.7819 88.73C64.0352 88.8367 64.4052 88.96 64.8919 89.1C65.4585 89.2533 65.9052 89.4133 66.2319 89.58C66.5585 89.74 66.8019 89.9433 66.9619 90.19C67.1219 90.43 67.2019 90.7367 67.2019 91.11C67.2019 91.73 66.9619 92.2167 66.4819 92.57C66.0019 92.9233 65.3552 93.1 64.5419 93.1ZM69.7945 93C69.7278 93 69.6711 92.98 69.6245 92.94C69.5845 92.8933 69.5645 92.8367 69.5645 92.77V86.89H67.6445C67.5778 86.89 67.5211 86.87 67.4745 86.83C67.4345 86.7833 67.4145 86.7267 67.4145 86.66V86.24C67.4145 86.1733 67.4345 86.1167 67.4745 86.07C67.5211 86.0233 67.5778 86 67.6445 86H72.4645C72.5378 86 72.5945 86.0233 72.6345 86.07C72.6811 86.11 72.7045 86.1667 72.7045 86.24V86.66C72.7045 86.7267 72.6811 86.7833 72.6345 86.83C72.5878 86.87 72.5311 86.89 72.4645 86.89H70.5545V92.77C70.5545 92.8367 70.5311 92.8933 70.4845 92.94C70.4378 92.98 70.3811 93 70.3145 93H69.7945ZM72.2133 93C72.1599 93 72.1133 92.98 72.0733 92.94C72.0333 92.9 72.0133 92.8533 72.0133 92.8C72.0133 92.7467 72.0166 92.71 72.0233 92.69L74.5033 86.22C74.5566 86.0733 74.6633 86 74.8233 86H75.5033C75.6633 86 75.7699 86.0733 75.8233 86.22L78.2933 92.69L78.3133 92.8C78.3133 92.8533 78.2933 92.9 78.2533 92.94C78.2133 92.98 78.1666 93 78.1133 93H77.6033C77.5299 93 77.4733 92.9833 77.4333 92.95C77.3933 92.91 77.3666 92.87 77.3533 92.83L76.8033 91.41H73.5233L72.9733 92.83C72.9599 92.87 72.9299 92.91 72.8833 92.95C72.8433 92.9833 72.7899 93 72.7233 93H72.2133ZM76.5133 90.55L75.1633 87L73.8133 90.55H76.5133ZM80.0003 93C79.9336 93 79.877 92.98 79.8303 92.94C79.7903 92.8933 79.7703 92.8367 79.7703 92.77V86.89H77.8503C77.7836 86.89 77.727 86.87 77.6803 86.83C77.6403 86.7833 77.6203 86.7267 77.6203 86.66V86.24C77.6203 86.1733 77.6403 86.1167 77.6803 86.07C77.727 86.0233 77.7836 86 77.8503 86H82.6703C82.7436 86 82.8003 86.0233 82.8403 86.07C82.887 86.11 82.9103 86.1667 82.9103 86.24V86.66C82.9103 86.7267 82.887 86.7833 82.8403 86.83C82.7936 86.87 82.737 86.89 82.6703 86.89H80.7603V92.77C80.7603 92.8367 80.737 92.8933 80.6903 92.94C80.6436 92.98 80.587 93 80.5203 93H80.0003ZM83.8613 93C83.7947 93 83.738 92.98 83.6913 92.94C83.6513 92.8933 83.6313 92.8367 83.6313 92.77V86.24C83.6313 86.1667 83.6513 86.11 83.6913 86.07C83.738 86.0233 83.7947 86 83.8613 86H87.9913C88.058 86 88.1113 86.0233 88.1513 86.07C88.198 86.11 88.2213 86.1667 88.2213 86.24V86.62C88.2213 86.6867 88.2013 86.7433 88.1613 86.79C88.1213 86.83 88.0647 86.85 87.9913 86.85H84.5913V89.04H87.7713C87.838 89.04 87.8913 89.0633 87.9313 89.11C87.978 89.15 88.0013 89.2067 88.0013 89.28V89.65C88.0013 89.7167 87.978 89.7733 87.9313 89.82C87.8913 89.86 87.838 89.88 87.7713 89.88H84.5913V92.15H88.0713C88.1447 92.15 88.2013 92.17 88.2413 92.21C88.2813 92.25 88.3013 92.3067 88.3013 92.38V92.77C88.3013 92.8367 88.278 92.8933 88.2313 92.94C88.1913 92.98 88.138 93 88.0713 93H83.8613ZM91.577 93C91.5103 93 91.4536 92.98 91.407 92.94C91.367 92.8933 91.347 92.8367 91.347 92.77V86.24C91.347 86.1667 91.367 86.11 91.407 86.07C91.4536 86.0233 91.5103 86 91.577 86H92.077C92.1836 86 92.2703 86.0533 92.337 86.16L94.447 90.2L96.577 86.16C96.5903 86.12 96.617 86.0833 96.657 86.05C96.7036 86.0167 96.7603 86 96.827 86H97.317C97.3903 86 97.447 86.0233 97.487 86.07C97.5336 86.11 97.557 86.1667 97.557 86.24V92.77C97.557 92.8367 97.5336 92.8933 97.487 92.94C97.4403 92.98 97.3836 93 97.317 93H96.827C96.7603 93 96.7036 92.98 96.657 92.94C96.617 92.8933 96.597 92.8367 96.597 92.77V87.85L94.927 91.11C94.8603 91.25 94.7536 91.32 94.607 91.32H94.297C94.1503 91.32 94.0436 91.25 93.977 91.11L92.297 87.85V92.77C92.297 92.8367 92.2736 92.8933 92.227 92.94C92.187 92.98 92.1336 93 92.067 93H91.577ZM101.526 93.1C100.666 93.1 99.9997 92.87 99.5264 92.41C99.0597 91.9433 98.8264 91.24 98.8264 90.3V86.24C98.8264 86.1667 98.8464 86.11 98.8864 86.07C98.9331 86.0233 98.9897 86 99.0564 86H99.5664C99.6397 86 99.6964 86.0233 99.7364 86.07C99.7831 86.11 99.8064 86.1667 99.8064 86.24V90.32C99.8064 90.96 99.9564 91.44 100.256 91.76C100.556 92.08 100.98 92.24 101.526 92.24C102.073 92.24 102.496 92.08 102.796 91.76C103.096 91.44 103.246 90.96 103.246 90.32V86.24C103.246 86.1667 103.266 86.11 103.306 86.07C103.353 86.0233 103.41 86 103.476 86H103.996C104.063 86 104.116 86.0233 104.156 86.07C104.203 86.1167 104.226 86.1733 104.226 86.24V90.3C104.226 91.24 103.99 91.9433 103.516 92.41C103.05 92.87 102.386 93.1 101.526 93.1ZM107.748 93.1C107.195 93.1 106.715 93.0133 106.308 92.84C105.908 92.6667 105.601 92.44 105.388 92.16C105.175 91.8733 105.061 91.5667 105.048 91.24C105.048 91.1867 105.068 91.14 105.108 91.1C105.155 91.0533 105.208 91.03 105.268 91.03H105.778C105.905 91.03 105.991 91.0967 106.038 91.23C106.098 91.51 106.268 91.75 106.548 91.95C106.835 92.15 107.235 92.25 107.748 92.25C108.301 92.25 108.718 92.1533 108.998 91.96C109.278 91.76 109.418 91.4833 109.418 91.13C109.418 90.9033 109.348 90.72 109.208 90.58C109.075 90.44 108.875 90.3167 108.608 90.21C108.341 90.1033 107.941 89.97 107.408 89.81C106.888 89.6633 106.475 89.5067 106.168 89.34C105.861 89.1733 105.631 88.9667 105.478 88.72C105.325 88.4733 105.248 88.1633 105.248 87.79C105.248 87.43 105.345 87.1067 105.538 86.82C105.738 86.5333 106.021 86.31 106.388 86.15C106.755 85.9833 107.191 85.9 107.698 85.9C108.218 85.9 108.665 85.9933 109.038 86.18C109.411 86.36 109.695 86.59 109.888 86.87C110.081 87.15 110.185 87.43 110.198 87.71C110.198 87.7633 110.178 87.81 110.138 87.85C110.105 87.89 110.055 87.91 109.988 87.91H109.458C109.318 87.91 109.231 87.8467 109.198 87.72C109.158 87.44 109.001 87.21 108.728 87.03C108.455 86.8433 108.111 86.75 107.698 86.75C107.245 86.75 106.888 86.8367 106.628 87.01C106.368 87.1833 106.238 87.44 106.238 87.78C106.238 88.0067 106.298 88.1933 106.418 88.34C106.545 88.4867 106.735 88.6167 106.988 88.73C107.241 88.8367 107.611 88.96 108.098 89.1C108.665 89.2533 109.111 89.4133 109.438 89.58C109.765 89.74 110.008 89.9433 110.168 90.19C110.328 90.43 110.408 90.7367 110.408 91.11C110.408 91.73 110.168 92.2167 109.688 92.57C109.208 92.9233 108.561 93.1 107.748 93.1ZM113.001 93C112.934 93 112.877 92.98 112.831 92.94C112.791 92.8933 112.771 92.8367 112.771 92.77V86.89H110.851C110.784 86.89 110.727 86.87 110.681 86.83C110.641 86.7833 110.621 86.7267 110.621 86.66V86.24C110.621 86.1733 110.641 86.1167 110.681 86.07C110.727 86.0233 110.784 86 110.851 86H115.671C115.744 86 115.801 86.0233 115.841 86.07C115.887 86.11 115.911 86.1667 115.911 86.24V86.66C115.911 86.7267 115.887 86.7833 115.841 86.83C115.794 86.87 115.737 86.89 115.671 86.89H113.761V92.77C113.761 92.8367 113.737 92.8933 113.691 92.94C113.644 92.98 113.587 93 113.521 93H113.001ZM118.659 93C118.592 93 118.536 92.98 118.489 92.94C118.449 92.8933 118.429 92.8367 118.429 92.77V86.24C118.429 86.1667 118.449 86.11 118.489 86.07C118.536 86.0233 118.592 86 118.659 86H122.739C122.812 86 122.869 86.0233 122.909 86.07C122.956 86.11 122.979 86.1667 122.979 86.24V86.64C122.979 86.7067 122.956 86.7633 122.909 86.81C122.869 86.85 122.812 86.87 122.739 86.87H119.399V89.2H122.539C122.612 89.2 122.669 89.2233 122.709 89.27C122.756 89.31 122.779 89.3667 122.779 89.44V89.84C122.779 89.9067 122.756 89.9633 122.709 90.01C122.662 90.05 122.606 90.07 122.539 90.07H119.399V92.77C119.399 92.8367 119.376 92.8933 119.329 92.94C119.282 92.98 119.226 93 119.159 93H118.659ZM124.099 93C124.032 93 123.975 92.98 123.929 92.94C123.889 92.8933 123.869 92.8367 123.869 92.77V86.23C123.869 86.1633 123.889 86.11 123.929 86.07C123.975 86.0233 124.032 86 124.099 86H124.629C124.695 86 124.749 86.0233 124.789 86.07C124.835 86.11 124.859 86.1633 124.859 86.23V92.13H128.179C128.252 92.13 128.309 92.1533 128.349 92.2C128.395 92.24 128.419 92.2967 128.419 92.37V92.77C128.419 92.8367 128.395 92.8933 128.349 92.94C128.302 92.98 128.245 93 128.179 93H124.099ZM131.526 93.1C130.653 93.1 129.976 92.8733 129.496 92.42C129.023 91.96 128.773 91.27 128.746 90.35C128.739 90.15 128.736 89.8667 128.736 89.5C128.736 89.1333 128.739 88.8533 128.746 88.66C128.773 87.76 129.033 87.0767 129.526 86.61C130.019 86.1367 130.686 85.9 131.526 85.9C132.359 85.9 133.023 86.1367 133.516 86.61C134.009 87.0767 134.269 87.76 134.296 88.66C134.309 89.0467 134.316 89.3267 134.316 89.5C134.316 89.6667 134.309 89.95 134.296 90.35C134.269 91.27 134.016 91.96 133.536 92.42C133.063 92.8733 132.393 93.1 131.526 93.1ZM131.526 92.25C132.053 92.25 132.473 92.09 132.786 91.77C133.099 91.45 133.269 90.96 133.296 90.3C133.309 89.9 133.316 89.6333 133.316 89.5C133.316 89.3533 133.309 89.0867 133.296 88.7C133.269 88.04 133.096 87.55 132.776 87.23C132.463 86.91 132.046 86.75 131.526 86.75C130.999 86.75 130.576 86.91 130.256 87.23C129.943 87.55 129.773 88.04 129.746 88.7C129.739 88.8933 129.736 89.16 129.736 89.5C129.736 89.8333 129.739 90.1 129.746 90.3C129.773 90.96 129.943 91.45 130.256 91.77C130.576 92.09 130.999 92.25 131.526 92.25ZM136.466 93C136.292 93 136.189 92.91 136.156 92.73L134.866 86.31C134.859 86.2767 134.856 86.24 134.856 86.2C134.856 86.1467 134.876 86.1 134.916 86.06C134.956 86.02 135.002 86 135.056 86H135.576C135.716 86 135.796 86.0567 135.816 86.17L136.836 91.33L137.916 87.79C137.976 87.63 138.082 87.55 138.236 87.55H138.606C138.692 87.55 138.759 87.5733 138.806 87.62C138.859 87.6667 138.896 87.7233 138.916 87.79L140.006 91.33L141.016 86.17C141.036 86.0567 141.119 86 141.266 86H141.786C141.839 86 141.886 86.02 141.926 86.06C141.966 86.1 141.986 86.1467 141.986 86.2L141.976 86.31L140.686 92.73C140.646 92.91 140.542 93 140.376 93H139.986C139.812 93 139.702 92.9167 139.656 92.75L138.416 88.94L137.186 92.75C137.132 92.9167 137.022 93 136.856 93H136.466Z" fill="#34495E"/>
<path fill-rule="evenodd" clip-rule="evenodd" d="M93 31C86.6448 34.7201 78.0791 38.248 69.2843 41.3454C66.3066 40.9368 62.8575 39.7484 59.4221 37C46.7947 44.3916 20 50.5513 20 50.5513C21.789 51.2272 23.6084 51.9202 25.4541 52.6233L25.4588 52.625L25.4601 52.6256C46.5477 60.6581 71.0725 70 93 70C114.591 70 137.033 64.0091 158.491 58.2808C163.386 56.9742 168.229 55.6812 173 54.4762C173 54.4762 140.662 47.4685 131.422 41C128.654 42.4182 125.204 43.7846 121.505 45.0537C109.974 40.6501 98.7979 35.6383 93 31Z" fill="white"/>
<path d="M131.422 44C118.795 50.4685 92 55.859 92 55.859C92 55.859 119.719 65.0228 131.422 65.0228L134.81 55.859L131.422 44Z" fill="#41B883"/>
<path d="M61.1885 47.0657C72.6197 43.393 84.6966 38.8606 93 34L98.5 56L93 73C69.1511 73 42.2298 61.9492 20 53.5513C20 53.5513 46.7947 47.3916 59.4221 40L61.1885 47.0657Z" fill="#41B883"/>
<path fill-rule="evenodd" clip-rule="evenodd" d="M69.2843 44.3454C66.0576 45.4818 62.8001 46.5602 59.6095 47.5689C59.5499 47.5444 59.4874 47.5214 59.4221 47.5C54.8441 46 53.5 44.5 59.4221 40C62.8575 42.7484 66.3066 43.9368 69.2843 44.3454Z" fill="#34495E"/>
<path d="M93 49C85.5 45 84.5 42 93 34C100.722 40.1777 117.985 47.0179 132.919 52.2013C132.903 51.8011 132.755 51.4663 132.422 51.2106C129.844 49.2324 129 46.6253 131.422 44C140.662 50.4685 173 57.4762 173 57.4762C147.316 63.9643 119.517 73 93 73C88.7211 67.9188 91.1651 62.5515 93.2168 58.0457C95.001 54.1273 96.4885 50.8605 93 49Z" fill="#34495E"/>
</g>
<defs>
<clipPath id="clip0">
<rect width="188" height="105" fill="white"/>
</clipPath>
</defs>
</svg>
